<svg data-v-423bf9ae="" xmlns="http://www.w3.org/2000/svg" viewBox="0 0 221.33818275884371 60" class="font"><g data-v-423bf9ae="" id="478fc98d-03f7-44b3-a0b4-656eba398b53" fill="black" transform="matrix(5.424954891204834,0,0,5.424954891204834,-6.455697059631348,-9.113922119140625)"><path d="M1.61 8.68C1.61 8.13 1.81 7.62 2.20 7.16C2.59 6.70 3.06 6.47 3.60 6.47C4.07 6.47 4.43 6.65 4.68 7.01C4.92 7.38 5.04 7.89 5.04 8.54L5.04 12.60L5.46 12.60L5.46 8.68C5.46 8.13 5.66 7.62 6.05 7.16C6.44 6.70 6.91 6.47 7.45 6.47C7.92 6.47 8.28 6.65 8.53 7.01C8.77 7.38 8.89 7.89 8.89 8.54L8.89 12.60L9.31 12.60L9.31 8.40C9.31 7.69 9.16 7.12 8.86 6.69C8.55 6.26 8.13 6.05 7.59 6.05C7.05 6.05 6.58 6.19 6.20 6.47C5.82 6.76 5.55 7.15 5.39 7.64C5.29 7.15 5.10 6.76 4.82 6.47C4.54 6.19 4.18 6.05 3.74 6.05C3.21 6.05 2.76 6.19 2.39 6.47C2.02 6.75 1.76 7.13 1.61 7.62L1.61 6.16L1.19 6.16L1.19 12.60L1.61 12.60ZM16.44 9.06L11.59 9.06C11.61 8.38 11.86 7.77 12.34 7.25C12.82 6.73 13.40 6.47 14.08 6.47C14.77 6.47 15.33 6.72 15.76 7.24C16.20 7.75 16.43 8.36 16.44 9.06ZM11.56 9.48L16.87 9.48C16.88 9.43 16.88 9.38 16.88 9.32C16.88 8.33 16.63 7.53 16.11 6.94C15.59 6.34 14.91 6.05 14.08 6.05C13.23 6.05 12.53 6.36 11.97 6.99C11.41 7.61 11.13 8.41 11.13 9.38C11.13 10.33 11.42 11.13 12.01 11.76C12.60 12.39 13.29 12.71 14.08 12.71C15.32 12.71 16.24 12.13 16.84 10.96L16.48 10.74C15.94 11.76 15.15 12.28 14.11 12.28C13.42 12.28 12.83 12.01 12.33 11.47C11.84 10.92 11.58 10.26 11.56 9.48ZM19.12 8.68C19.12 8.12 19.33 7.61 19.73 7.15C20.14 6.70 20.65 6.47 21.25 6.47C22.31 6.47 22.83 7.16 22.83 8.54L22.83 12.60L23.25 12.60L23.25 8.40C23.25 7.68 23.10 7.11 22.78 6.68C22.46 6.26 22.00 6.05 21.39 6.05C20.80 6.05 20.32 6.19 19.94 6.46C19.55 6.74 19.28 7.12 19.12 7.62L19.12 6.16L18.70 6.16L18.70 12.60L19.12 12.60ZM25.47 7.32C25.84 7.03 26.19 6.81 26.51 6.66C26.83 6.51 27.23 6.44 27.71 6.44C28.84 6.44 29.41 6.95 29.41 7.98L29.41 9.13C28.92 8.82 28.29 8.67 27.54 8.67C26.85 8.67 26.25 8.85 25.75 9.21C25.25 9.56 25.00 10.07 25.00 10.71C25.00 11.39 25.21 11.90 25.63 12.24C26.05 12.57 26.56 12.74 27.15 12.74C27.74 12.74 28.24 12.61 28.64 12.35C29.03 12.09 29.29 11.74 29.41 11.31L29.41 12.60L29.83 12.60L29.83 7.98C29.83 7.34 29.67 6.85 29.33 6.52C28.99 6.19 28.45 6.02 27.71 6.02C27.34 6.02 26.99 6.07 26.66 6.18C26.33 6.29 26.08 6.40 25.91 6.50C25.73 6.61 25.51 6.76 25.24 6.96ZM25.44 10.71C25.44 10.20 25.64 9.79 26.03 9.50C26.43 9.21 26.93 9.06 27.54 9.06C28.21 9.06 28.84 9.23 29.41 9.56L29.41 10.36C29.41 10.94 29.19 11.41 28.76 11.79C28.32 12.16 27.80 12.35 27.22 12.35C26.66 12.35 26.22 12.21 25.91 11.93C25.59 11.65 25.44 11.24 25.44 10.71ZM34.73 6.96L34.99 6.57C34.62 6.22 34.27 6.05 33.92 6.05C33.14 6.05 32.64 6.51 32.42 7.43L32.42 6.16L32.00 6.16L32.00 12.60L32.42 12.60L32.42 8.68C32.42 8.17 32.55 7.68 32.80 7.21C33.05 6.74 33.38 6.51 33.77 6.51C34.19 6.51 34.51 6.66 34.73 6.96ZM35.83 9.38C35.83 10.39 36.12 11.20 36.71 11.80C37.31 12.41 38.05 12.71 38.95 12.71C39.56 12.71 40.10 12.53 40.56 12.17C41.03 11.80 41.36 11.32 41.57 10.72L41.57 12.60L41.99 12.60L41.99 1.68L41.57 1.68L41.57 8.04C41.36 7.44 41.03 6.96 40.56 6.59C40.10 6.23 39.56 6.05 38.95 6.05C38.05 6.05 37.31 6.35 36.71 6.96C36.12 7.56 35.83 8.37 35.83 9.38ZM36.26 9.38C36.26 8.48 36.53 7.77 37.06 7.25C37.60 6.73 38.22 6.47 38.91 6.47C39.67 6.47 40.31 6.75 40.81 7.31C41.31 7.87 41.57 8.56 41.57 9.38C41.57 10.20 41.31 10.89 40.81 11.45C40.31 12.01 39.67 12.29 38.91 12.29C38.22 12.29 37.60 12.03 37.06 11.51C36.53 10.99 36.26 10.28 36.26 9.38Z"></path></g></svg>